<svg xmlns="http://www.w3.org/2000/svg" viewBox="0 0 512 512">
  <defs>
    <linearGradient id="g" x1="0" y1="0" x2="1" y2="1">
      <stop offset="0" stop-color="#004be3"/>
      <stop offset="1" stop-color="#819bff"/>
    </linearGradient>
    <radialGradient id="r" cx="35%" cy="30%" r="80%">
      <stop offset="0" stop-color="#29fcf3" stop-opacity="0.7"/>
      <stop offset="1" stop-color="#29fcf3" stop-opacity="0"/>
    </radialGradient>
  </defs>
  <rect width="512" height="512" rx="120" fill="url(#g)"/>
  <circle cx="190" cy="160" r="210" fill="url(#r)"/>
  <g fill="none" stroke="#ffffff" stroke-linecap="round" stroke-linejoin="round">
    <path d="M256 128c-61.9 0-112 50.1-112 112 0 84 112 208 112 208s112-124 112-208c0-61.9-50.1-112-112-112z" stroke-width="28"/>
    <circle cx="256" cy="240" r="44" stroke-width="28"/>
  </g>
  <g fill="#ffffff" opacity="0.9">
    <path d="M148 356c22 10 48 16 76 16 72 0 132-40 156-92-34 34-86 58-146 58-33 0-62-7-86-18z" opacity="0.22"/>
  </g>
</svg>
